<mxfile host="app.diagrams.net" modified="2021-09-08T04:53:23.675Z" agent="5.0 (Windows NT 6.1; Win64; x64) AppleWebKit/537.36 (KHTML, like Gecko) Chrome/93.0.4577.63 Safari/537.36" etag="Flpzs7_XBLLZ8dYHA9Je" version="15.0.4" type="github">
  <diagram id="8G1xJhk3juWvFJzGZoab" name="第 1 页">
    <mxGraphModel dx="1102" dy="582" grid="1" gridSize="10" guides="1" tooltips="1" connect="1" arrows="1" fold="1" page="1" pageScale="1" pageWidth="827" pageHeight="1169" math="0" shadow="0">
      <root>
        <mxCell id="0" />
        <mxCell id="1" parent="0" />
        <mxCell id="fYJdt4onO25BBd_EPBhb-19" value="请求 A" style="rounded=1;whiteSpace=wrap;html=1;fontSize=16;fillColor=#ffe6cc;strokeColor=#d79b00;" vertex="1" parent="1">
          <mxGeometry x="40" y="640" width="96.33802816901407" height="81.81818181818183" as="geometry" />
        </mxCell>
        <mxCell id="fYJdt4onO25BBd_EPBhb-20" value="请求 B" style="rounded=1;whiteSpace=wrap;html=1;fontSize=16;fillColor=#f8cecc;strokeColor=#b85450;" vertex="1" parent="1">
          <mxGeometry x="176.4788732394366" y="640" width="96.33802816901407" height="81.81818181818183" as="geometry" />
        </mxCell>
        <mxCell id="fYJdt4onO25BBd_EPBhb-21" value="缓存" style="rounded=1;whiteSpace=wrap;html=1;fontSize=16;fillColor=#cce5ff;strokeColor=#36393d;" vertex="1" parent="1">
          <mxGeometry x="315.7676056338028" y="640" width="96.33802816901407" height="81.81818181818183" as="geometry" />
        </mxCell>
        <mxCell id="fYJdt4onO25BBd_EPBhb-22" value="数据库" style="rounded=1;whiteSpace=wrap;html=1;fontSize=16;fillColor=#ffff88;strokeColor=#36393d;" vertex="1" parent="1">
          <mxGeometry x="457.46478873239437" y="640" width="96.33802816901407" height="81.81818181818183" as="geometry" />
        </mxCell>
        <mxCell id="fYJdt4onO25BBd_EPBhb-23" value="" style="endArrow=none;html=1;fontSize=16;entryX=0.5;entryY=1;entryDx=0;entryDy=0;dashed=1;" edge="1" parent="1" target="fYJdt4onO25BBd_EPBhb-19">
          <mxGeometry x="40" y="640" width="50" height="50" as="geometry">
            <mxPoint x="88" y="1050" as="sourcePoint" />
            <mxPoint x="120.28169014084506" y="762.7272727272727" as="targetPoint" />
          </mxGeometry>
        </mxCell>
        <mxCell id="fYJdt4onO25BBd_EPBhb-24" value="" style="endArrow=none;html=1;fontSize=16;entryX=0.5;entryY=1;entryDx=0;entryDy=0;dashed=1;" edge="1" parent="1">
          <mxGeometry x="40" y="640" width="50" height="50" as="geometry">
            <mxPoint x="224" y="1050" as="sourcePoint" />
            <mxPoint x="224.24647887323954" y="721.8181818181818" as="targetPoint" />
          </mxGeometry>
        </mxCell>
        <mxCell id="fYJdt4onO25BBd_EPBhb-25" value="" style="endArrow=none;html=1;fontSize=16;entryX=0.5;entryY=1;entryDx=0;entryDy=0;dashed=1;" edge="1" parent="1">
          <mxGeometry x="40" y="640" width="50" height="50" as="geometry">
            <mxPoint x="364" y="1050" as="sourcePoint" />
            <mxPoint x="363.5352112676055" y="721.8181818181818" as="targetPoint" />
          </mxGeometry>
        </mxCell>
        <mxCell id="fYJdt4onO25BBd_EPBhb-26" value="" style="endArrow=none;html=1;fontSize=16;entryX=0.5;entryY=1;entryDx=0;entryDy=0;dashed=1;" edge="1" parent="1">
          <mxGeometry x="40" y="640" width="50" height="50" as="geometry">
            <mxPoint x="505" y="1050" as="sourcePoint" />
            <mxPoint x="505.23239436619724" y="721.8181818181818" as="targetPoint" />
          </mxGeometry>
        </mxCell>
        <mxCell id="fYJdt4onO25BBd_EPBhb-27" value="" style="endArrow=classic;html=1;fontSize=16;fillColor=#ffcd28;strokeColor=#d79b00;gradientColor=#ffa500;strokeWidth=2;" edge="1" parent="1">
          <mxGeometry x="35.56" y="810" width="50" height="50" as="geometry">
            <mxPoint x="83.72901408450707" y="960" as="sourcePoint" />
            <mxPoint x="365.55999999999995" y="960" as="targetPoint" />
          </mxGeometry>
        </mxCell>
        <mxCell id="fYJdt4onO25BBd_EPBhb-28" value="缓存未命中" style="text;html=1;align=center;verticalAlign=middle;resizable=0;points=[];autosize=1;fillColor=#fff2cc;fontSize=16;" vertex="1" parent="1">
          <mxGeometry x="384.0019718309859" y="790.0036363636364" width="100" height="20" as="geometry" />
        </mxCell>
        <mxCell id="fYJdt4onO25BBd_EPBhb-29" value="" style="endArrow=classic;html=1;fontSize=16;strokeWidth=2;gradientColor=#ffa500;fillColor=#ffcd28;strokeColor=#d79b00;" edge="1" parent="1">
          <mxGeometry x="40" y="475.45000000000005" width="50" height="50" as="geometry">
            <mxPoint x="88.16901408450713" y="829.9954545454547" as="sourcePoint" />
            <mxPoint x="500" y="830.36" as="targetPoint" />
          </mxGeometry>
        </mxCell>
        <mxCell id="fYJdt4onO25BBd_EPBhb-30" value="更新数据库为 20" style="text;html=1;align=center;verticalAlign=middle;resizable=0;points=[];autosize=1;fillColor=#fff2cc;fontSize=16;strokeWidth=2;" vertex="1" parent="1">
          <mxGeometry x="510.00492957746474" y="819.9990909090909" width="130" height="20" as="geometry" />
        </mxCell>
        <mxCell id="fYJdt4onO25BBd_EPBhb-31" value="" style="endArrow=classic;html=1;fontSize=16;strokeWidth=2;gradientColor=#ea6b66;fillColor=#f8cecc;strokeColor=#b85450;" edge="1" parent="1">
          <mxGeometry x="39.28999999999999" y="652" width="50" height="50" as="geometry">
            <mxPoint x="223.93788732394364" y="870.1818181818182" as="sourcePoint" />
            <mxPoint x="503.94000000000005" y="870" as="targetPoint" />
          </mxGeometry>
        </mxCell>
        <mxCell id="fYJdt4onO25BBd_EPBhb-32" value="更新数据库为 21" style="text;html=1;align=center;verticalAlign=middle;resizable=0;points=[];autosize=1;strokeColor=#b85450;fillColor=#f8cecc;fontSize=16;" vertex="1" parent="1">
          <mxGeometry x="510" y="860" width="130" height="20" as="geometry" />
        </mxCell>
        <mxCell id="fYJdt4onO25BBd_EPBhb-33" value="" style="endArrow=classic;html=1;fontSize=16;strokeWidth=2;gradientColor=#ea6b66;fillColor=#f8cecc;strokeColor=#b85450;" edge="1" parent="1">
          <mxGeometry x="40" y="691" width="50" height="50" as="geometry">
            <mxPoint x="224.64788732394368" y="909.1818181818182" as="sourcePoint" />
            <mxPoint x="360" y="909" as="targetPoint" />
          </mxGeometry>
        </mxCell>
        <mxCell id="fYJdt4onO25BBd_EPBhb-34" value="删除缓存" style="text;html=1;align=center;verticalAlign=middle;resizable=0;points=[];autosize=1;strokeColor=#b85450;fillColor=#f8cecc;fontSize=16;" vertex="1" parent="1">
          <mxGeometry x="380" y="900" width="80" height="20" as="geometry" />
        </mxCell>
        <mxCell id="fYJdt4onO25BBd_EPBhb-35" value="" style="endArrow=classic;html=1;fontSize=16;fillColor=#ffcd28;strokeColor=#d79b00;gradientColor=#ffa500;strokeWidth=2;" edge="1" parent="1">
          <mxGeometry x="41.83" y="650" width="50" height="50" as="geometry">
            <mxPoint x="89.99901408450705" y="800" as="sourcePoint" />
            <mxPoint x="371.8299999999999" y="800" as="targetPoint" />
          </mxGeometry>
        </mxCell>
        <mxCell id="fYJdt4onO25BBd_EPBhb-36" value="缓存更新为 20" style="text;html=1;align=center;verticalAlign=middle;resizable=0;points=[];autosize=1;fillColor=#fff2cc;fontSize=16;" vertex="1" parent="1">
          <mxGeometry x="374.0019718309859" y="950.0036363636364" width="120" height="20" as="geometry" />
        </mxCell>
      </root>
    </mxGraphModel>
  </diagram>
</mxfile>
